<svg width="128" height="77" viewBox="0 0 128 77" xmlns="http://www.w3.org/2000/svg"><g fill="none" fill-rule="evenodd"><path d="M111.065 69.714h6.773v3.676h-6.773v-3.676zm-3.32 6.675h13.482v-9.676h-13.48v9.675z" fill="#FFF"/><path d="M124.227 56.52h-6.124v-1.936h6.124v1.935zm0 4.758h-6.124v-1.935h6.124v1.935zm-8.873-9.975v13.363h8.873V76.9h4.055V51.303h-12.928zM110.803 56.52h-6.04v-1.936h6.04v1.935zm0 4.758h-6.04v-1.935h6.04v1.935zm2.732-9.975h-12.842V76.9h4.053V64.666h8.79V51.303zM109.868 4.812h4.586v-3.63h-13.778v3.63h5.626v17.426a11.714 11.714 0 0 1-2.14-.353V9.005h-3.466V24.27c1.09.517 2.25.906 3.465 1.148.95.19 1.932.286 2.937.286 2.305 0 4.49-.522 6.44-1.455V20.34c-1.13.768-2.3 1.28-3.67 1.606v-6.924h3.67v-3.44h-3.67V4.81z" fill="#FFF"/><path d="M121.91 15.18c-1.01-2.128-1.808-4.504-2.33-7.05l.157-.362h4.457c-.397 2.853-1.276 5.284-2.285 7.41m2.17 3.36c3.413-6.67 4.22-13.846 4.22-13.846h-7.462c.23-.81.455-1.636.656-2.476.168-.696.32-1.398.445-2.108h-3.831c-.988 3.73-2.32 7.247-4.375 10.45l1.995 3.473c.452-.674.906-1.394 1.355-2.138l.203.463c.674 2.265 1.468 4.303 2.51 6.152-1.076 1.28-2.82 2.373-4.444 3.284v3.914c2.498-1.136 4.875-2.563 6.493-4.26 1.462 1.724 4.232 3.172 6.453 4.235v-4.194c-1.226-.83-3.3-1.82-4.22-2.95" fill="#FFF"/><path d="M43.526 43.643c-9.184 0-16.63 7.444-16.63 16.628 0 9.187 7.446 16.63 16.63 16.63 9.185 0 16.628-7.443 16.628-16.63 0-9.183-7.443-16.627-16.628-16.627" fill="#FF0087"/><path d="M77.494.108H57.96v28.795h19.534V76.9h9.2V.108h-9.2z" fill="#AAA"/><path d="M38.68 28.903V.108H.3V76.9h19.19V28.903h19.19z" fill="#FF0087"/></g></svg>