<svg width="244" height="17" viewBox="0 0 244 17" xmlns="http://www.w3.org/2000/svg"><g fill="#FFF" fill-rule="evenodd"><path d="M-.05.852v3.163h4.745v12.427h3.43V4.015h4.743V.852H-.05zM22.3.74l-6.684 15.702h3.498l1.425-3.496h6.592l1.424 3.496h3.588L25.464.74H22.3zm1.536 4.12l2.07 5.057h-4.14l2.07-5.057zM37.856.852v15.59h11.2v-3.117h-7.77V.852h-3.43zM64.603.852l-6.326 6.814V.852H54.85v15.59h3.427v-4.766l1.805-1.87 4.832 6.636h4.12L62.4 7.467 68.746.852h-4.143zM83.347.852v3.163h4.745v12.427h3.428V4.015h4.745V.852H83.347zM114.084 8.647c0-2.673-1.96-4.9-4.723-4.9-2.76 0-4.676 2.184-4.676 4.855v.045c0 2.674 1.96 4.9 4.722 4.9 2.762 0 4.678-2.183 4.678-4.855v-.045zm-4.723 8.062c-4.81 0-8.26-3.586-8.26-8.018v-.045c0-4.432 3.495-8.063 8.306-8.063 4.812 0 8.265 3.586 8.265 8.018v.045c0 4.433-3.497 8.062-8.31 8.062zM141.135 4.015v12.428h-3.43V4.015h-4.743V.852h12.916v3.163h-4.743zM156.845 4.86l-2.07 5.057h4.142l-2.072-5.056zm4.723 11.583l-1.426-3.498h-6.592l-1.426 3.498h-3.497L155.31.74h3.162l6.68 15.703h-3.584zM170.94.853h3.432v15.59h-3.432V.853zM198.52 16.554h-2.987l-3.52-10.2-3.517 10.2h-2.987L180.186.852h3.677l3.227 10.558 3.5-10.603h2.94l3.495 10.603 3.23-10.558h3.587l-5.323 15.702zM215.228 4.86l-2.073 5.057h4.142l-2.07-5.056zm4.723 11.583l-1.425-3.498h-6.594l-1.423 3.498h-3.496L213.69.74h3.165l6.68 15.703h-3.584zM240.184 16.443l-7.55-9.912v9.913h-3.387V.853h3.163l7.305 9.598V.853h3.386v15.59h-2.916z"/></g></svg>