<svg width="198" height="256" viewBox="0 0 198 256" xmlns="http://www.w3.org/2000/svg"><g fill="none" fill-rule="evenodd"><path d="M99.32 99.5c-20.978 0-37.976 17-37.976 37.975 0 20.977 16.998 37.975 37.975 37.975 20.976 0 37.973-16.998 37.973-37.975 0-20.974-16.997-37.975-37.974-37.975" fill="#FF0087"/><path d="M88.254 65.837V.07H.604V175.45H44.43V65.836h43.824z" fill="#FF0087"/><path d="M176.9.07h-44.617v65.767H176.9V175.45h21.01V.07H176.9z" fill="#AAA"/><path d="M170.586 243.755h10.747v5.833h-10.747v-5.833zm-5.27 10.593h21.396v-15.356h-21.395v15.356z" fill="#FFF"/><path d="M191.475 222.808h-9.72v-3.072h9.72v3.072zm0 7.557h-9.72v-3.072h9.72v3.072zm-14.085-15.84v21.21h14.085v19.424h6.435v-40.635h-20.52zM170.165 222.808h-9.583v-3.072h9.583v3.072zm0 7.557h-9.583v-3.072h9.583v3.072zm4.334-15.84h-20.384v40.634h6.438v-19.424H174.5v-21.21zM15.197 221.998h7.28v-5.764H.6v5.764h8.932v27.656a18.463 18.463 0 0 1-3.4-.558v-20.443H.64v24.23a23.764 23.764 0 0 0 5.497 1.82c1.51.3 3.064.457 4.66.457 3.66 0 7.127-.83 10.22-2.313v-6.2c-1.79 1.22-3.65 2.028-5.818 2.55v-10.99h5.82v-5.46h-5.82v-10.75z" fill="#FFF"/><path d="M34.307 238.45c-1.603-3.374-2.868-7.147-3.693-11.186l.245-.575h7.077c-.63 4.528-2.027 8.386-3.63 11.76m3.45 5.327c5.416-10.584 6.695-21.972 6.695-21.972H32.608c.37-1.284.723-2.596 1.045-3.927.26-1.106.506-2.222.706-3.352H28.278c-1.568 5.926-3.69 11.503-6.947 16.59l3.17 5.514a81.833 81.833 0 0 0 2.148-3.396l.323.734c1.07 3.597 2.335 6.834 3.982 9.765-1.705 2.033-4.474 3.768-7.05 5.21v6.217c3.962-1.804 7.735-4.068 10.303-6.765 2.324 2.74 6.72 5.038 10.244 6.723v-6.657c-1.945-1.308-5.236-2.887-6.697-4.683M85.547 217.087v6.476H83.76v-6.476h-2.473v-1.65h6.73v1.65h-2.47zM93.733 217.527l-1.08 2.635h2.16l-1.08-2.635zm2.458 6.034l-.738-1.822h-3.435l-.745 1.823h-1.824l3.485-8.18h1.65l3.478 8.18h-1.87zM101.037 223.562v-8.123h1.785v6.497h4.054v1.625h-5.84zM115.14 223.562l-2.52-3.457-.94.974v2.482h-1.788v-8.123h1.788v3.55l3.294-3.55h2.16l-3.31 3.447 3.46 4.675h-2.145zM94.603 232.4v6.477h-1.785V232.4h-2.475v-1.647h6.73v1.647h-2.47zM106.36 234.815c0-1.392-1.023-2.552-2.464-2.552-1.435 0-2.433 1.135-2.433 2.53v.022c0 1.39 1.02 2.552 2.458 2.552 1.44 0 2.44-1.136 2.44-2.528v-.026zm-2.464 4.202c-2.505 0-4.303-1.87-4.303-4.178v-.026c0-2.31 1.82-4.202 4.328-4.202 2.51 0 4.308 1.87 4.308 4.18v.022c0 2.31-1.824 4.202-4.332 4.202zM74.848 247.772v6.476h-1.785v-6.476H70.59v-1.647h6.73v1.647h-2.472zM83.036 248.214l-1.08 2.634h2.16l-1.08-2.634zm2.46 6.033l-.74-1.82H81.32l-.745 1.82h-1.823l3.484-8.18h1.647l3.482 8.18h-1.868zM90.382 246.125h1.788v8.124h-1.788v-8.125zM104.75 254.306h-1.555l-1.83-5.316-1.836 5.316h-1.56l-2.772-8.18h1.917l1.68 5.5 1.823-5.523h1.532l1.823 5.522 1.68-5.5h1.87l-2.774 8.18zM113.456 248.214l-1.08 2.634h2.16l-1.08-2.634zm2.46 6.033l-.742-1.82h-3.434l-.746 1.82h-1.823l3.485-8.18h1.65l3.48 8.18h-1.868zM126.46 254.247l-3.936-5.164v5.164h-1.763v-8.123h1.648l3.81 5.002v-5.002h1.762v8.123h-1.52z" fill="#FFF"/></g></svg>