<?xml version="1.0" encoding="UTF-8" standalone="no"?>
<svg
   xmlns:svg="http://www.w3.org/2000/svg"
   xmlns="http://www.w3.org/2000/svg"
   xmlns:sodipodi="http://sodipodi.sourceforge.net/DTD/sodipodi-0.dtd"
   xmlns:inkscape="http://www.inkscape.org/namespaces/inkscape"
   width="32"
   height="32"
   viewBox="0 0 32 32"
   version="1.1"
   id="svg2"
   inkscape:version="0.48.4 r9939"
   sodipodi:docname="complete.svg">
  <sodipodi:namedview
     pagecolor="#ffffff"
     bordercolor="#666666"
     borderopacity="1"
     objecttolerance="10"
     gridtolerance="10"
     guidetolerance="10"
     inkscape:pageopacity="0"
     inkscape:pageshadow="2"
     inkscape:window-width="1074"
     inkscape:window-height="816"
     id="namedview39"
     showgrid="false"
     inkscape:zoom="3.348"
     inkscape:cx="9.275"
     inkscape:cy="28.05"
     inkscape:window-x="0"
     inkscape:window-y="0"
     inkscape:window-maximized="0"
     inkscape:current-layer="svg2" />
  <defs
     id="defs8" />
  <g
     transform="translate(4,6.4)"
     id="youtube">
    <path
       style="fill:#fd1c85"
       inkscape:connector-curvature="0"
       d="M 12,0.36 C 0.2064,0.36 0,1.409 0,9.6 c 0,8.19 0.2064,9.24 12,9.24 11.79,0 12,-1.05 12,-9.24 C 24,1.409 23.79,0.36 12,0.36 l 0,0 0,0 z" />
    <path
       style="fill:#ffffff"
       d="m 15.85,10 -5.39,2.52 C 9.986,12.73 9.6,12.49 9.6,11.97 l 0,-4.739 c 0,-0.519 0.386,-0.765 0.86,-0.547 l 5.39,2.515 c 0.47,0.221 0.47,0.581 0,0.801 l 0,0 0,0 z"
       inkscape:connector-curvature="0" />
  </g>
</svg>
