<?xml version="1.0" encoding="UTF-8" standalone="no"?>
<svg
   xmlns:svg="http://www.w3.org/2000/svg"
   xmlns="http://www.w3.org/2000/svg"
   xmlns:sodipodi="http://sodipodi.sourceforge.net/DTD/sodipodi-0.dtd"
   xmlns:inkscape="http://www.inkscape.org/namespaces/inkscape"
   width="32"
   height="32"
   viewBox="0 0 32 32"
   version="1.1"
   id="svg2"
   inkscape:version="0.48.4 r9939"
   sodipodi:docname="extra.svg">
  <sodipodi:namedview
     pagecolor="#ffffff"
     bordercolor="#666666"
     borderopacity="1"
     objecttolerance="10"
     gridtolerance="10"
     guidetolerance="10"
     inkscape:pageopacity="0"
     inkscape:pageshadow="2"
     inkscape:window-width="1289"
     inkscape:window-height="967"
     id="namedview39"
     showgrid="false"
     inkscape:zoom="1.844"
     inkscape:cx="17.08"
     inkscape:cy="64"
     inkscape:window-x="0"
     inkscape:window-y="0"
     inkscape:window-maximized="0"
     inkscape:current-layer="svg2" />
  <defs
     id="defs8" />
  <g
     transform="translate(7,7)">
    <path
       style="fill:#fd1c85"
       inkscape:connector-curvature="0"
       d="m 9.048,7.039 2.492,2.488 4.68,-4.683 2.41,2.417 0,-7.2181 L 11.37,0 l 2.36,2.357 -4.682,4.682 0,0 0,0 0,0 z" />
    <path
       style="fill:#ffffff"
       inkscape:connector-curvature="0"
       d="m 15.84,15.81 -12.949,0 0.02,-12.904 8.369,-0.04 -2.875,-2.8671 -6.533,0 C 0.8363,0.0019 0,0.8381 0,1.869 L 0,16.8 c 0,1.03 0.8363,1.87 1.867,1.87 l 14.933,0 c 1.03,0 1.87,-0.84 1.87,-1.87 l -0.1,-6.58 -2.79,-2.821 0,8.411 0,0 z" />
  </g>
</svg>
