<?xml version="1.0" encoding="UTF-8" standalone="no"?>
<svg
   xmlns:svg="http://www.w3.org/2000/svg"
   xmlns="http://www.w3.org/2000/svg"
   xmlns:sodipodi="http://sodipodi.sourceforge.net/DTD/sodipodi-0.dtd"
   xmlns:inkscape="http://www.inkscape.org/namespaces/inkscape"
   width="32"
   height="32"
   viewBox="0 0 32 32"
   version="1.1"
   id="svg2"
   inkscape:version="0.48.4 r9939"
   sodipodi:docname="polis-data.svg">
  <sodipodi:namedview
     pagecolor="#ffffff"
     bordercolor="#666666"
     borderopacity="1"
     objecttolerance="10"
     gridtolerance="10"
     guidetolerance="10"
     inkscape:pageopacity="0"
     inkscape:pageshadow="2"
     inkscape:window-width="1173"
     inkscape:window-height="892"
     id="namedview39"
     showgrid="false"
     inkscape:zoom="5.352"
     inkscape:cx="-11.84"
     inkscape:cy="34.1"
     inkscape:window-x="318"
     inkscape:window-y="146"
     inkscape:window-maximized="0"
     inkscape:current-layer="svg2" />
  <defs
     id="defs8" />
  <g
     transform="translate(4.998,5.38)">
    <circle
       style="fill:#fd1c85"
       sodipodi:ry="6.828"
       sodipodi:rx="6.828"
       sodipodi:cy="9.609"
       sodipodi:cx="6.828"
       d="M 13.66,9.609 C 13.66,13.38 10.6,16.44 6.828,16.44 3.057,16.44 0,13.38 0,9.609 0,5.838 3.057,2.781 6.828,2.781 c 3.772,0 6.832,3.057 6.832,6.828 z"
       r="6.828"
       cy="9.609"
       cx="6.828"
       id="Oval-1" />
    <circle
       style="fill:#ffffff"
       sodipodi:ry="3.034"
       sodipodi:rx="3.034"
       sodipodi:cy="3.034"
       sodipodi:cx="18.97"
       d="M 22,3.034 C 22,4.71 20.65,6.068 18.97,6.068 17.29,6.068 15.94,4.71 15.94,3.034 15.94,1.358 17.29,0 18.97,0 20.65,0 22,1.358 22,3.034 z"
       r="3.034"
       cy="3.034"
       cx="18.97"
       id="circle24" />
    <path
       style="fill:#acacac"
       inkscape:connector-curvature="0"
       id="path26"
       d="m 15,7.841 c 2.87,0.809 4.98,3.449 4.98,6.569 0,3.77 -3.06,6.83 -6.83,6.83 -2.57,0 -4.81,-1.42 -5.974,-3.52 C 11.61,17.59 15.17,13.95 15.17,9.476 15.17,8.917 15.11,8.37 15,7.841 l 0,0 z" />
  </g>
</svg>
