<?xml version="1.0" encoding="UTF-8" standalone="no"?>
<svg
   xmlns:svg="http://www.w3.org/2000/svg"
   xmlns="http://www.w3.org/2000/svg"
   xmlns:sodipodi="http://sodipodi.sourceforge.net/DTD/sodipodi-0.dtd"
   xmlns:inkscape="http://www.inkscape.org/namespaces/inkscape"
   width="24.02"
   height="24.02"
   viewBox="0 0 24.02 24.02"
   version="1.1"
   id="svg2"
   inkscape:version="0.48.4 r9939"
   sodipodi:docname="sns-share-twitter.svg">
  <path
     d="m 24,4.57 c -0.88,0.39 -1.83,0.65 -2.83,0.77 1.02,-0.61 1.8,-1.57 2.17,-2.72 -0.95,0.56 -2.01,0.97 -3.13,1.19 -0.9,-0.95 -2.18,-1.55 -3.59,-1.55 -2.72,0 -4.93,2.2 -4.93,4.92 0,0.39 0.1,0.76 0.13,1.12 C 7.73,8.1 4.1,6.14 1.672,3.16 1.248,3.89 1.005,4.73 1.005,5.63 c 0,1.71 0.869,3.22 2.191,4.1 -0.807,0 -1.566,-0.24 -2.231,-0.61 0,0 0,0 0,0.1 0,2.39 1.698,4.38 3.95,4.83 -0.413,0.11 -0.848,0.17 -1.298,0.17 -0.317,0 -0.625,0 -0.926,-0.1 0.626,1.96 2.445,3.38 4.6,3.42 -1.685,1.32 -3.809,2.11 -6.116,2.11 -0.397,0 -0.789,0 -1.175,-0.1 2.18,1.4 4.768,2.21 7.551,2.21 9.049,0 14.009,-7.5 14.009,-14.01 0,-0.21 0,-0.42 0,-0.63 0.96,-0.7 1.8,-1.57 2.46,-2.55 l 0,0 z" />
</svg>
