<svg xmlns="http://www.w3.org/2000/svg"><symbol id="icon-complete" viewBox="0 0 32 32"><path d="M16 6.76C4.206 6.76 4 7.81 4 16s.206 9.24 12 9.24c11.79 0 12-1.05 12-9.24s-.21-9.24-12-9.24z" fill="#fd1c85"/><path d="M19.85 16.4l-5.39 2.52c-.474.21-.86-.03-.86-.55v-4.74c0-.518.386-.764.86-.546l5.39 2.515c.47.22.47.58 0 .8z" fill="#fff"/></symbol><symbol id="icon-extra" viewBox="0 0 32 32"><path d="M16.048 14.04l2.492 2.487 4.68-4.683 2.41 2.417V7.044L18.37 7l2.36 2.357-4.682 4.682z" fill="#fd1c85"/><path d="M22.84 22.81H9.89l.02-12.904 8.37-.04L15.405 7H8.872A1.873 1.873 0 0 0 7 8.87V23.8c0 1.03.836 1.87 1.867 1.87H23.8c1.03 0 1.87-.84 1.87-1.87l-.1-6.58-2.79-2.82v8.41z" fill="#fff"/></symbol><symbol id="icon-polis-data" viewBox="0 0 32 32"><g transform="translate(4.998 5.38)"><circle r="6.828" cy="9.609" cx="6.828" fill="#fd1c85"/><circle r="3.034" cy="3.034" cx="18.97" fill="#fff"/><path d="M15 7.84c2.87.81 4.98 3.45 4.98 6.57 0 3.77-3.06 6.83-6.83 6.83-2.57 0-4.81-1.42-5.974-3.52 4.434-.13 7.994-3.77 7.994-8.244 0-.56-.06-1.106-.17-1.635z" fill="#acacac"/></g></symbol><symbol id="icon-slider-prev" viewBox="0 0 14 25"><path d="M14 0v24.77L0 12.384 14 0z"/></symbol><symbol id="icon-sns-facebook" viewBox="0 0 22 22"><path d="M3.666 0A3.667 3.667 0 0 0 0 3.667V18.33C0 20.36 1.64 22 3.666 22H11v-9.63H8.25V9.63H11V7.56c0-1.9 1.54-3.435 3.44-3.435h3.43V6.88h-3.43c-.38 0-.69.3-.69.68v2.07h3.78l-.69 2.74h-3.09V22h4.58c2.03 0 3.67-1.64 3.67-3.67V3.667A3.667 3.667 0 0 0 18.33 0H3.666z"/></symbol><symbol id="icon-sns-twitter" viewBox="0 0 24.02 24.02"><path d="M24 4.57c-.88.39-1.83.65-2.83.77 1.02-.61 1.8-1.57 2.17-2.72-.95.56-2.01.97-3.13 1.19-.9-.95-2.18-1.55-3.59-1.55-2.72 0-4.93 2.2-4.93 4.92 0 .39.1.76.13 1.12C7.73 8.1 4.1 6.14 1.672 3.16a4.894 4.894 0 0 0-.667 2.47c0 1.71.87 3.22 2.19 4.1-.806 0-1.565-.24-2.23-.61v.1c0 2.39 1.698 4.38 3.95 4.83-.413.11-.848.17-1.298.17-.317 0-.625 0-.926-.1a4.924 4.924 0 0 0 4.6 3.42 9.887 9.887 0 0 1-6.115 2.11c-.397 0-.79 0-1.175-.1 2.18 1.4 4.768 2.21 7.55 2.21 9.05 0 14.01-7.5 14.01-14.01v-.63c.96-.7 1.8-1.57 2.46-2.55z"/></symbol><symbol id="icon-transcript" viewBox="0 0 32 32"><path d="M21 6H7a1 1 0 0 0-1 1v11a1 1 0 0 0 1 1h2v3l4.5-3H21c.55 0 1-.45 1-1V7a1 1 0 0 0-1-1zm-1 11h-6.5L11 18.5V17H8V8h12v9z" fill="#fb2a84"/><path d="M10 10h8v2h-8v-2zM10 13h8v2h-8v-2z" fill="#fff"/><g fill="#aaa"><path d="M15 21v1c0 .55.45 1 1 1h2.5l4.5 3v-3h2a1 1 0 0 0 1-1V11a1 1 0 0 0-1-1h-1v11h-9z"/></g></symbol></svg>